<svg width="91" height="63" viewBox="0 0 91 63" fill="none" xmlns="http://www.w3.org/2000/svg">
<g clip-path="url(#clip0_965_889)">
<path d="M90.3331 1.23706C86.6532 1.98925 88.5681 11.0824 82.6402 16.7154C76.6125 22.4488 69.619 21.0113 67.0047 17.15C64.3905 13.2888 66.3054 7.40501 73.1657 2.72473C80.026 -1.95556 92.8474 0.735604 90.3331 1.25378V1.23706Z" fill="#F8F7F2"/>
<path d="M83.6692 4.69727C83.6692 4.69727 74.3279 7.7896 71.7969 13.9074" stroke="#1B342E" stroke-miterlimit="10" stroke-linecap="round"/>
<path d="M33.2812 62.4145C33.2812 62.4145 70.2137 33.146 44.8705 27.0616C19.5273 20.9772 62.2544 76.5891 72.3784 19.1553" stroke="#F8F7F2" stroke-miterlimit="10"/>
<path d="M0.664062 62.8332C0.664062 62.8332 51.6502 45.5329 83.2709 63.5854L0.664062 62.8332Z" fill="#F8F7F2"/>
</g>
<defs>
<clipPath id="clip0_965_889">
<rect width="90" height="63" fill="white" transform="translate(0.664062)"/>
</clipPath>
</defs>
</svg>
